<svg xmlns="http://www.w3.org/2000/svg" xmlns:xlink="http://www.w3.org/1999/xlink" version="1.1" x="0px" y="0px" viewBox="0 0 100 100" enable-background="new 0 0 100 100" xml:space="preserve"><path fill="#000000" d="M66.4,21.3H53.6c-0.3-8.9-6-14.2-15.4-14.2c-1.1,0-2,0.9-2,2s0.9,2,2,2c7.2,0,11.2,3.5,11.5,10.2h-16  c-5.5,0-10.1,2.2-13.5,5.7c-0.1,0.1-0.3,0.2-0.4,0.3c-0.1,0.1-0.2,0.3-0.3,0.4c-4.4,4.8-6.7,11.6-6.7,18.4c0,1.1,0.9,2,2,2h4.2v1.3  c0,18.6,7.7,37.9,24.8,39.6c0.2,0.1,0.3,0.3,0.5,0.5c1.4,1.4,3.6,3.4,5.9,3.4c2.4,0,4.4-2.2,5.8-3.7c0.1-0.1,0.3-0.3,0.4-0.4  C64.3,88,70.9,83.3,75.3,75c3.8-7,5.8-16.1,5.8-25.7v-1.3h4.2c1.1,0,2-0.9,2-2C87.4,33.9,79.5,21.3,66.4,21.3z M79.2,44.1h-9.3  l-1.4-1.4l4.8-4.8l6.2,6.2H79.2z M55.5,44.1l-2.4-2.4l4.3-4.3l5.3,5.3l-1.4,1.4H55.5z M39.3,44.1l-1.4-1.4l5.3-5.3l4.3,4.3l-2.4,2.4  H39.3z M21.3,44.1l6.2-6.2l4.8,4.8l-1.4,1.4H21.3z M21.3,31.7l3.4,3.4l-7.8,7.8C17.4,39.1,18.8,35,21.3,31.7z M31.3,25.5l1.5,1.5  l-5.3,5.3L24,28.8C26,27.1,28.4,25.9,31.3,25.5z M45.4,25.3l2.1,2.1l-4.3,4.3L38.4,27l1.7-1.7H45.4z M60.6,25.3l1.7,1.7l-4.8,4.8  l-4.3-4.3l2.1-2.1H60.6z M76.4,29.1C76.4,29.1,76.3,29.2,76.4,29.1l-3.2,3.2L67.9,27l1.4-1.4C72.1,26.1,74.5,27.4,76.4,29.1z   M70.4,35.1l-4.8,4.8l-5.3-5.3l4.8-4.8L70.4,35.1z M54.7,34.6l-4.3,4.3L46,34.6l4.3-4.3L54.7,34.6z M40.4,34.6l-5.3,5.3l-4.8-4.8  l5.3-5.3L40.4,34.6z M76,35.1l3-3c2.1,3,3.4,6.5,4,10L76,35.1z M77.2,49.3c0,23.5-11,34.7-21.9,35.5c-1,0.1-1.5,0.7-2.4,1.6  c-0.5,0.6-2.2,2.3-2.9,2.4c-0.8,0-2.5-1.7-3.2-2.3c-0.9-0.9-1.5-1.5-2.4-1.5c-10.8-0.8-21.6-12.2-21.6-35.7v-1.3H50h27.2V49.3z"></path></svg>